<?xml version="1.0" encoding="UTF-8"?>
<svg xmlns="http://www.w3.org/2000/svg" version="1.1" viewBox="0 0 90 90">
  <defs>
    <style>
      .cls-1 {
        stroke-miterlimit: 4;
        stroke-width: 1px;
      }

      .cls-1, .cls-2, .cls-3 {
        fill: none;
        stroke: #252b33;
      }

      .cls-2 {
        stroke-linecap: round;
      }

      .cls-2, .cls-3 {
        stroke-width: 1px;
      }

      .cls-4 {
        fill: #10b9ff;
      }

      .cls-3 {
        stroke-linecap: square;
      }
    </style>
  </defs>
  <!-- Generator: Adobe Illustrator 28.7.1, SVG Export Plug-In . SVG Version: 1.2.0 Build 142)  -->
  <g>
    <g id="Layer_1">
      <circle class="cls-4" cx="49.8" cy="30.4" r="4.8"/>
      <path class="cls-3" d="M52.3,57.8l-9.5.3c-.5,0-1-.2-1.4-.7l-2.6-3.6c-6.4-9-5.8-21.3,1.5-29.7l6.8-7.8,6.3,6.3c8.3,8.3,9.4,21.4,2.6,31l-2.5,3.5c-.3.4-.7.7-1.2.7Z"/>
      <path class="cls-2" d="M44,40.5l8-.3"/>
      <path class="cls-3" d="M60.5,43.7l6.5,4.8c3.8,2.8,5.8,7.5,5.1,12.2l-.8,5.3c-.2,1.1-1.6,1.2-2,.2h0c-1.9-5.1-6.4-8.8-11.7-9.8l-2.5-.5"/>
      <path class="cls-3" d="M34.4,45.8l-5.9,4.6c-3.9,3.1-5.7,8.1-4.6,12.9l1,4.6c.2,1,1.6,1.1,2,0h0c1.6-5.1,5.8-9,11-10.2l2.5-.6"/>
      <circle class="cls-1" cx="47.7" cy="30.7" r="4.3"/>
      <path class="cls-2" d="M44.8,61.2v1.6"/>
      <path class="cls-2" d="M45,69.2v3.2"/>
      <path class="cls-2" d="M51.2,61v1.6"/>
      <path class="cls-2" d="M51.4,69v3.2"/>
    </g>
  </g>
</svg>