<?xml version="1.0" encoding="UTF-8"?>
<svg xmlns="http://www.w3.org/2000/svg" version="1.1" viewBox="0 0 90 90">
  <defs>
    <style>
      .cls-1, .cls-2, .cls-3 {
        fill: none;
        stroke: #252b33;
      }

      .cls-2, .cls-3 {
        stroke-linecap: round;
      }

      .cls-4 {
        fill: #10b9ff;
      }

      .cls-3 {
        stroke-linejoin: round;
      }
    </style>
  </defs>
  <!-- Generator: Adobe Illustrator 28.7.1, SVG Export Plug-In . SVG Version: 1.2.0 Build 142)  -->
  <g>
    <g id="Layer_1">
      <rect class="cls-4" x="15" y="21.7" width="7.5" height="49.4" rx="2" ry="2"/>
      <path class="cls-2" d="M24.3,25h18.2"/>
      <path class="cls-2" d="M24.3,31.5h18.2"/>
      <path class="cls-2" d="M24.3,38h18.2"/>
      <path class="cls-2" d="M24.3,44.6h18.2"/>
      <path class="cls-2" d="M24.3,51.1h18.2"/>
      <path class="cls-1" d="M50,18h-30.2c-.6,0-1,.4-1,1v53c0,.6.4,1,1,1h39c.6,0,1-.4,1-1v-35.5M50,18v9.3c0,.6.4,1,1,1h8.8M50,18l9.8,10.3M59.7,28.3v8.9"/>
      <path class="cls-3" d="M33.6,66.5l-5.6-3.3,5.6-3.3"/>
      <path class="cls-3" d="M43.9,66.5l5.6-3.3-5.6-3.3"/>
      <path class="cls-2" d="M37.4,68.8l2.3-9.8"/>
    </g>
  </g>
</svg>