<?xml version="1.0" encoding="UTF-8"?>
<svg xmlns="http://www.w3.org/2000/svg" version="1.1" xmlns:xlink="http://www.w3.org/1999/xlink" viewBox="0 0 90 90">
  <defs>
    <style>
      .cls-1, .cls-2, .cls-3, .cls-4 {
        fill: none;
      }

      .cls-1, .cls-3, .cls-4 {
        stroke: #252b33;
      }

      .cls-3, .cls-4 {
        stroke-linecap: round;
      }

      .cls-5 {
        fill: #10b9ff;
      }

      .cls-4 {
        stroke-linejoin: round;
      }

      .cls-6 {
        clip-path: url(#clippath);
      }
    </style>
    <clipPath id="clippath">
      <rect class="cls-2" x="21.6" y="18.1" width="41.8" height="41.8"/>
    </clipPath>
  </defs>
  <!-- Generator: Adobe Illustrator 28.7.1, SVG Export Plug-In . SVG Version: 1.2.0 Build 142)  -->
  <g>
    <g id="Layer_1">
      <path class="cls-5" d="M43.2,45.9c1.5,0,3-.4,4.2-1.3,1.2-.8,2.2-2,2.8-3.4.6-1.4.7-2.9.4-4.4-.3-1.5-1-2.8-2.1-3.9-1.1-1.1-2.4-1.8-3.9-2.1-1.5-.3-3-.1-4.4.4-1.4.6-2.6,1.5-3.4,2.8s-1.3,2.7-1.3,4.2.8,3.9,2.2,5.4c.7.7,1.5,1.3,2.5,1.6.9.4,1.9.6,2.9.6Z"/>
      <path class="cls-4" d="M41.3,65.9c5.1,0,10.1-1.5,14.4-4.4,4.3-2.9,7.6-6.9,9.6-11.6,2-4.7,2.5-10,1.5-15-1-5-3.5-9.7-7.1-13.3-3.6-3.6-8.2-6.1-13.3-7.1-5-1-10.2-.5-15,1.5-4.7,2-8.8,5.3-11.6,9.6-2.9,4.3-4.4,9.3-4.4,14.4s2.7,13.5,7.6,18.3c2.4,2.4,5.3,4.3,8.4,5.6,3.1,1.3,6.5,2,9.9,2Z"/>
      <path class="cls-3" d="M59.8,59.3l16.6,16.7"/>
      <g class="cls-6">
        <path class="cls-1" d="M54.7,37.4h4v5.2h-4.4v.4c-.4,1.4-1,2.7-1.7,3.9l-.2.3.3.3,2.9,2.9-3.7,3.7-2.9-2.9-.3-.3-.3.2c-1.2.7-2.5,1.3-3.8,1.6h-.4v4.5h-5.3v-4.5h-.4c-1.4-.4-2.7-1-3.8-1.7l-.3-.2-.3.3-2.9,2.9-3.7-3.7,2.9-2.9.3-.3-.2-.3c-.7-1.2-1.3-2.5-1.6-3.8v-.4h-4.5v-5.2h4.4v-.4c.4-1.4,1-2.7,1.7-3.9l.2-.3-.3-.3-2.9-2.9,3.7-3.7,2.9,2.9.3.3.3-.2c1.2-.7,2.5-1.3,3.9-1.6h.4v-4.5h5.3v4.5h.4c1.4.4,2.7,1,3.8,1.7l.3.2.3-.3,2.9-2.9,3.7,3.7-2.9,2.9-.3.3.2.3c.7,1.2,1.3,2.5,1.6,3.9v.4h.5ZM41.5,46.8c3.7,0,6.8-3,6.8-6.8s-3-6.8-6.8-6.8-6.8,3-6.8,6.8,3,6.8,6.8,6.8Z"/>
      </g>
    </g>
  </g>
</svg>