<?xml version="1.0" encoding="UTF-8"?>
<svg xmlns="http://www.w3.org/2000/svg" version="1.1" viewBox="0 0 90 94">
  <defs>
    <style>
      .cls-1, .cls-2, .cls-3 {
        fill: none;
        stroke: #252b33;
      }

      .cls-2, .cls-3 {
        stroke-linecap: round;
      }

      .cls-4 {
        fill: #10b9ff;
      }

      .cls-5 {
        fill: #252b33;
        fill-rule: evenodd;
      }

      .cls-3 {
        stroke-linejoin: round;
      }
    </style>
  </defs>
  <!-- Generator: Adobe Illustrator 28.7.1, SVG Export Plug-In . SVG Version: 1.2.0 Build 142)  -->
  <g>
    <g id="Layer_1">
      <circle class="cls-4" cx="49.5" cy="26.5" r="1.5"/>
      <rect class="cls-4" x="29" y="57.5" width="20" height="6" rx="2" ry="2"/>
      <path class="cls-1" d="M52.7,68.9v3.1c0,1.1-.5,2.2-1.2,3-.8.8-1.8,1.2-2.9,1.2h-20.5c-1.1,0-2.1-.4-2.9-1.2-.8-.8-1.2-1.9-1.2-3V21.9c0-1.1.5-2.2,1.2-3,.8-.8,1.8-1.2,2.9-1.2h20.5c1.1,0,2.1.4,2.9,1.2.8.8,1.2,1.9,1.2,3v25.4"/>
      <line class="cls-1" x1="24" y1="23.5" x2="53" y2="23.5"/>
      <line class="cls-1" x1="24" y1="70.5" x2="53" y2="70.5"/>
      <line class="cls-1" x1="33" y1="20.4" x2="44" y2="20.4"/>
      <path class="cls-1" d="M31,60h14c.8,0,1.5.7,1.5,1.5h0c0,.8-.7,1.5-1.5,1.5h-14c-.8,0-1.5-.7-1.5-1.5h0c0-.8.7-1.5,1.5-1.5Z"/>
      <path class="cls-5" d="M27.9,29l-.9-.9c0,0,0-.1,0-.2l.9-.9c0,0,.1,0,.2,0,0,0,0,.1,0,.2l-.6.6h1.5v.3h-1.5l.6.6c0,0,0,.1,0,.2,0,0-.1,0-.2,0Z"/>
      <circle class="cls-1" cx="49" cy="27" r="1"/>
      <path class="cls-4" d="M44.2,40.5l-1.5-3.7c-.3-.7-.7-1-1.1-1.1-.5,0-.9.3-1.2.9l-.9,1.7c-.2.4-.5.6-.8.6-.3,0-.6-.1-.8-.5h-.1c-.3-.6-.8-.8-1.2-.8-.4,0-.8.4-1,.9l-.8,1.7c-.3.6-.3,1.3,0,1.9.3.6,1,.9,1.6.9h6.1c.6,0,1.2-.3,1.6-.9.4-.6.4-1.3.2-1.9Z"/>
      <path class="cls-4" d="M37,36.2c.9,0,1.6-.8,1.6-1.7s-.7-1.7-1.6-1.7-1.6.8-1.6,1.7.7,1.7,1.6,1.7Z"/>
      <path class="cls-3" d="M43.1,41.5l-1.5-3.7c-.5-1.2-1.4-1.3-2.1-.1l-.9,1.7c-.5.9-1.3.9-1.9.2h-.1c-.6-.9-1.5-.8-1.9,0l-.8,1.7c-.6,1.2.3,2.6,1.5,2.6h6.1c1.2,0,2.1-1.3,1.6-2.5Z"/>
      <path class="cls-3" d="M36,37.1c.8,0,1.4-.7,1.4-1.5s-.6-1.5-1.4-1.5-1.4.7-1.4,1.5.6,1.5,1.4,1.5Z"/>
      <path class="cls-2" d="M27,45.5h22"/>
      <path class="cls-2" d="M27,49.5h22"/>
      <path class="cls-2" d="M27,54.5h22"/>
      <path class="cls-2" d="M58.1,65.3l-7.5-12.1s0,0,0,0l-.3-.9c-.6-1.7,1.5-3.1,2.8-1.9h0s0,0,0,0l3.5,5.4M60.2,62l-3.6-6.2M56.6,55.8v-.2c-.5-1.9,1.9-3.3,3.3-1.8h0s0,0,0,0l.9,1.7M63.2,59.6l-2.4-4.1M60.8,55.5l-.2-.9c-.3-1.6,1.6-2.5,2.7-1.4h0s0,0,0,0l1.4,2.5M66.2,58.1l-1.4-2.5M64.8,55.7v-.6c-.6-1.9,1.8-3.1,3-1.6h0s0,0,0,0l6.1,10.7"/>
      <path class="cls-2" d="M58.2,65.4l-3.5.3h-1.5c-1.2.2-1.3,1.9-.2,2.2h0l2.5.5c1.9.4,3.6,1.2,5.1,2.4l1.3,1c1.2,1,2.7,1.5,4.3,1.6h0c4.4.2,8-3.4,7.8-7.8v-1.4"/>
    </g>
  </g>
</svg>