<?xml version="1.0" encoding="UTF-8"?>
<svg xmlns="http://www.w3.org/2000/svg" version="1.1" viewBox="0 0 90 90">
  <defs>
    <style>
      .cls-1 {
        stroke-linecap: square;
      }

      .cls-1, .cls-2 {
        stroke-width: .8px;
      }

      .cls-1, .cls-2, .cls-3, .cls-4 {
        fill: none;
        stroke: #252b33;
      }

      .cls-2 {
        stroke-linecap: round;
      }

      .cls-3 {
        stroke-miterlimit: 4;
        stroke-width: .8px;
      }

      .cls-4 {
        stroke-width: .9px;
      }

      .cls-5 {
        fill: #10b9ff;
      }
    </style>
  </defs>
  <!-- Generator: Adobe Illustrator 28.7.1, SVG Export Plug-In . SVG Version: 1.2.0 Build 142)  -->
  <g>
    <g id="Layer_1">
      <path class="cls-4" d="M17.4,33.7l-.4,35.1c0,3.7,2.9,6.7,6.6,6.7h41.7c3.7,0,6.7-3,6.7-6.7v-35.1"/>
      <circle class="cls-5" cx="46" cy="26" r="3.6"/>
      <path class="cls-1" d="M47.8,46.5h-7.6c-.2.1-.4,0-.5-.1l-5.8-8.5c-2.4-3.6-2.1-8.3.8-11.5l9.7-10.7,9.7,10c3.2,3.3,3.5,8.4.8,12l-6.4,8.7c-.1.2-.3.2-.5.3Z"/>
      <path class="cls-2" d="M41.6,33.5h6"/>
      <path class="cls-1" d="M53.8,36.1l7,5.3c1.5,1.1,2.2,3,1.9,4.8l-1.2,7.3c-.1.6-1,.7-1.2.1l-.7-1.8c-1.1-3-3.7-5.3-6.9-5.9l-3.2-.7"/>
      <path class="cls-1" d="M34.4,37.3l-6.8,5.1c-1.5,1.2-2.3,3.1-1.9,5l1.4,6.7c.1.6,1,.7,1.2,0l.5-1.5c1-3.1,3.6-5.4,6.8-6.1l3-.7"/>
      <circle class="cls-3" cx="44.4" cy="26.3" r="3.2"/>
      <path class="cls-2" d="M41.9,49v1.2"/>
      <path class="cls-2" d="M42,54.9v2.4"/>
      <path class="cls-2" d="M46.6,48.9v1.2"/>
      <path class="cls-2" d="M46.7,54.8v2.4"/>
      <path class="cls-4" d="M32.1,33.7h-15.2"/>
      <path class="cls-4" d="M72,34.1h-15.7"/>
    </g>
  </g>
</svg>