<svg xmlns="http://www.w3.org/2000/svg" version="1.1" viewBox="0 0 100 100" height="100px" width="100px" transform="rotate(0) scale(1, 1)">
  <defs>
    <style>.cls-1 { fill: #0049ac; }</style>
  </defs>
  <!-- Generator: Adobe Illustrator 28.7.1, SVG Export Plug-In . SVG Version: 1.2.0 Build 142)  -->
  <g>
    <g id="Layer_1">
      <path class="cls-1" d="M37.1,80.6c-2.7,0-4.8,2.2-4.8,4.8s2.2,4.8,4.8,4.8,4.8-2.2,4.8-4.8-2.2-4.8-4.8-4.8ZM37.1,87.1c-.9,0-1.6-.7-1.6-1.6s.7-1.6,1.6-1.6,1.6.7,1.6,1.6-.7,1.6-1.6,1.6Z"/>
      <path class="cls-1" d="M50,80.6c-2.7,0-4.8,2.2-4.8,4.8s2.2,4.8,4.8,4.8,4.8-2.2,4.8-4.8-2.2-4.8-4.8-4.8ZM50,87.1c-.9,0-1.6-.7-1.6-1.6s.7-1.6,1.6-1.6,1.6.7,1.6,1.6-.7,1.6-1.6,1.6Z"/>
      <path class="cls-1" d="M62.9,80.6c-2.7,0-4.8,2.2-4.8,4.8s2.2,4.8,4.8,4.8,4.8-2.2,4.8-4.8-2.2-4.8-4.8-4.8ZM62.9,87.1c-.9,0-1.6-.7-1.6-1.6s.7-1.6,1.6-1.6,1.6.7,1.6,1.6-.7,1.6-1.6,1.6Z"/>
      <path class="cls-1" d="M93.5,43.5h-6.5v9.7h-12.9v-31.5c0-4.9-4-8.8-8.8-8.8s-1.4,0-2,.2l-30.8,6.6c-3.2.8-5.5,3.1-6.4,6.1H6.5c-1.8,0-3.2-1.4-3.2-3.2s1.4-3.2,3.2-3.2h12.9c3.6,0,6.5-2.9,6.5-6.5v-1.6c0-1.8,1.4-3.2,3.2-3.2h14.7c.7,2.8,3.2,4.8,6.2,4.8s6.5-2.9,6.5-6.5-2.9-6.5-6.5-6.5-5.5,2.1-6.2,4.8h-14.7c-3.6,0-6.5,2.9-6.5,6.5v1.6c0,1.8-1.4,3.2-3.2,3.2H6.5c-3.6,0-6.5,2.9-6.5,6.5s2.9,6.5,6.5,6.5h19.4v24.2H6.5c-3.6,0-6.5,2.9-6.5,6.5s.8,3.5,2,4.7l11.4,24.3h4.2v-9.7h8.1v11.6c-1.9.7-3.2,2.5-3.2,4.6s2.2,4.8,4.8,4.8h45.2c2.7,0,4.8-2.2,4.8-4.8s-1.3-3.9-3.2-4.6v-11.6h19.4c3.6,0,6.5-2.9,6.5-6.5v-22.6c0-3.6-2.9-6.5-6.5-6.5ZM50,3.2c1.8,0,3.2,1.4,3.2,3.2s-1.4,3.2-3.2,3.2-3.2-1.4-3.2-3.2,1.4-3.2,3.2-3.2ZM46.8,29c0,1.8,1.4,3.2,3.2,3.2h12.9c1.8,0,3.2-1.4,3.2-3.2v-3.2c0-1.8-1.4-3.2-3.2-3.2h-12.9c-1.8,0-3.2,1.4-3.2,3.2h-17.2c.7-1.5,2-2.6,3.7-3l30.8-6.6c.4-.1.9-.2,1.3-.2,3.1,0,5.6,2.5,5.6,5.6v13.7H29v-6.5h17.7ZM50,29v-3.2h12.9v3.2s-12.9,0-12.9,0ZM14.5,83.3l-8.1-17.2h8.1v17.2ZM17.7,75.8v-12.9H6.5c-1.8,0-3.2-1.4-3.2-3.2s1.4-3.2,3.2-3.2h19.4v19.4h-8.1ZM72.6,96.8H27.4c-.9,0-1.6-.7-1.6-1.6s.7-1.6,1.6-1.6h1.6v-54.8h41.9v54.8h1.6c.9,0,1.6.7,1.6,1.6s-.7,1.6-1.6,1.6ZM93.5,75.8h-19.4v-19.4h12.9v12.9h6.5c1.8,0,3.2,1.4,3.2,3.2s-1.4,3.2-3.2,3.2ZM96.8,67c-.9-.6-2.1-.9-3.2-.9h-3.2v-19.4h3.2c1.8,0,3.2,1.4,3.2,3.2v17Z"/>
      <path class="cls-1" d="M51.6,58.1h-3.2c-1.8,0-3.2-1.4-3.2-3.2s1.4-3.2,3.2-3.2h3.2c1.8,0,3.2,1.4,3.2,3.2h3.2c0-3.6-2.9-6.5-6.5-6.5v-3.2h-3.2v3.2c-3.6,0-6.5,2.9-6.5,6.5s2.9,6.5,6.5,6.5h3.2c1.8,0,3.2,1.4,3.2,3.2s-1.4,3.2-3.2,3.2h-3.2c-1.8,0-3.2-1.4-3.2-3.2v-1.6h-3.2v1.6c0,3.6,2.9,6.5,6.5,6.5v3.2h3.2v-3.2c3.6,0,6.5-2.9,6.5-6.5s-2.9-6.5-6.5-6.5Z"/>
    </g>
  </g>
</svg>