<svg xmlns="http://www.w3.org/2000/svg" version="1.1" viewBox="0 0 100 100" height="100px" width="100px" transform="rotate(0) scale(1, 1)">
  <defs>
    <style>.cls-1 { fill: #0049ac; }</style>
  </defs>
  <!-- Generator: Adobe Illustrator 28.7.1, SVG Export Plug-In . SVG Version: 1.2.0 Build 142)  -->
  <g>
    <g id="Layer_1">
      <path class="cls-1" d="M85.1,69.5l1.4-15.2c.7.3,1.4.5,2.2.5,2.7,0,4.8-2.2,4.8-4.8v-18.9c0-2.9-1.9-5.4-4.7-6.2l-6.6-1.9v-2.9c2-1.8,3.2-4.3,3.2-7.2v-3.2c0-5.3-4.3-9.7-9.7-9.7s-9.7,4.3-9.7,9.7v3.2c0,2.9,1.3,5.4,3.2,7.2v2.9l-6.6,1.9c-2.8.8-4.7,3.3-4.7,6.2v2l-1.6-.5v-2.9c2-1.8,3.2-4.3,3.2-7.2v-3.2c0-5.3-4.3-9.7-9.7-9.7s-9.7,4.3-9.7,9.7v3.2c0,2.9,1.3,5.4,3.2,7.2v2.9l-1.6.5v-2c0-2.9-1.9-5.4-4.7-6.2l-6.6-1.9v-2.9c2-1.8,3.2-4.3,3.2-7.2v-3.2c0-5.3-4.3-9.7-9.7-9.7s-9.7,4.3-9.7,9.7v3.2c0,2.9,1.3,5.4,3.2,7.2v2.9l-6.6,1.9c-2.8.8-4.7,3.3-4.7,6.2v18.9c0,2.7,2.2,4.8,4.8,4.8s1.5-.2,2.2-.5l1.4,15.2c-9.6,3.3-14.9,7.8-14.9,12.8,0,8.6,17.5,17.7,50,17.7s50-9.1,50-17.7-5.3-9.5-14.9-12.8ZM70.8,80.6l-2.9-30.6h6.3v30.6h-3.4ZM77.4,50h6.3l-2.9,30.6h-3.4v-30.6ZM69.4,9.7c0-3.6,2.9-6.5,6.5-6.5s6.5,2.9,6.5,6.5v3.2c0,3.6-2.9,6.5-6.5,6.5s-6.5-2.9-6.5-6.5v-3.2ZM75.8,22.6c1.1,0,2.2-.2,3.2-.6v1.7c-.4.6-1.5,2.1-3.2,2.1s-2.8-1.4-3.2-2.1v-1.7c1,.4,2.1.6,3.2.6ZM61.3,31.1c0-1.4,1-2.7,2.3-3.1l6.6-1.9c.9,1.2,2.8,3,5.5,3s4.6-1.7,5.5-3l6.6,1.9c1.4.4,2.3,1.7,2.3,3.1v18.9c0,.9-.7,1.6-1.6,1.6s-1.6-.7-1.6-1.6v-16.1h-3.2v12.9h-16.1v-12.9h-3.2v1.3c-.5-.3-.9-.5-1.5-.6l-1.8-.5v-3ZM43.5,19.4c0-3.6,2.9-6.5,6.5-6.5s6.5,2.9,6.5,6.5v3.2c0,3.6-2.9,6.5-6.5,6.5s-6.5-2.9-6.5-6.5v-3.2ZM50,32.3c1.1,0,2.2-.2,3.2-.6v1.7c-.4.6-1.5,2.1-3.2,2.1s-2.8-1.4-3.2-2.1v-1.7c1,.4,2.1.6,3.2.6ZM44.5,35.7c.9,1.2,2.8,3,5.5,3s4.6-1.7,5.5-3l6.6,1.9c1.4.4,2.3,1.7,2.3,3.1v18.9c0,.9-.7,1.6-1.6,1.6s-1.6-.7-1.6-1.6v-16.1h-3.2v12.9h-16.1v-12.9h-3.2v16.1c0,.9-.7,1.6-1.6,1.6s-1.6-.7-1.6-1.6v-18.9c0-1.4,1-2.7,2.3-3.1l6.6-1.9ZM45,90.3l-2.9-30.6h6.3v30.6h-3.4ZM51.6,59.7h6.3l-2.9,30.6h-3.4v-30.6ZM19.2,80.6l-2.9-30.6h6.3v30.6h-3.4ZM25.8,50h6.3l-2.9,30.6h-3.4v-30.6ZM17.7,9.7c0-3.6,2.9-6.5,6.5-6.5s6.5,2.9,6.5,6.5v3.2c0,3.6-2.9,6.5-6.5,6.5s-6.5-2.9-6.5-6.5v-3.2ZM24.2,22.6c1.1,0,2.2-.2,3.2-.6v1.7c-.4.6-1.5,2.1-3.2,2.1s-2.8-1.4-3.2-2.1v-1.7c1,.4,2.1.6,3.2.6ZM11.3,51.6c-.9,0-1.6-.7-1.6-1.6v-18.9c0-1.4,1-2.7,2.3-3.1l6.6-1.9c.9,1.2,2.8,3,5.5,3s4.6-1.7,5.5-3l6.6,1.9c1.4.4,2.3,1.7,2.3,3.1v3l-1.8.5c-.5.1-1,.4-1.5.6v-1.3h-3.2v12.9h-16.1v-12.9h-3.2v16.1c0,.9-.7,1.6-1.6,1.6ZM50,96.8c-27.6,0-46.8-7.7-46.8-14.5s4.4-6.8,12-9.5l1.1,11.1h15.8l1.9-20.5c.8.7,1.9,1.1,3,1.1s1.5-.2,2.2-.5l2.8,29.6h15.8l2.8-29.6c.7.3,1.4.5,2.2.5,1.2,0,2.2-.4,3-1.1l1.9,20.5h15.8l1.1-11.1c7.5,2.7,12,6.2,12,9.5,0,6.9-19.2,14.5-46.8,14.5Z"/>
    </g>
  </g>
</svg>