<svg xmlns="http://www.w3.org/2000/svg" version="1.1" viewBox="0 0 101 100" height="100px" width="100px" transform="rotate(0) scale(1, 1)">
  <defs>
    <style>.cls-1 { fill: #0049ac; }</style>
  </defs>
  <!-- Generator: Adobe Illustrator 28.7.1, SVG Export Plug-In . SVG Version: 1.2.0 Build 142)  -->
  <g>
    <g id="Layer_1">
      <path class="cls-1" d="M95.5,82.9h-3.8l-.9-4.1c6-8.4,9.1-18.4,9.1-28.8C100,22.4,77.6,0,50,0S0,22.4,0,50s22.4,50,50,50h48.3c.5,0,1-.2,1.4-.7.3-.3.5-.9.3-1.4l-2.8-13.6c-.2-.9-.9-1.4-1.7-1.4ZM79.5,82.9h-3.1l2.1-10.2h7.8l1.2,6v.2l.9,4.1h-8.8v-.2ZM82.8,86.4l-.7,3.3-.7-3.3h1.4ZM63.3,82.9h-3.1l2.1-10.2h7.8l2.1,10.2h-8.8ZM66.7,86.4l-.7,3.3-.5-3.3h1.2ZM52.8,82.9c-.9,0-1.6.5-1.7,1.4l-1.2,6c-22.1-.2-40-18.3-40-40.3S27.8,9.8,50,9.8s40.2,17.9,40.2,40.2-1.7,13.3-4.8,19.1h-1.7l-2.6-12.2c-.2-.9-.9-1.4-1.7-1.4h-10.5c-.9,0-1.6.5-1.7,1.4l-2.4,12.4h-3.8c-.9,0-1.6.5-1.7,1.4l-2.4,12.2h-4ZM68.3,69.1l2.1-10.2h7.8l2.1,10.2h-11.9ZM74.8,72.6l-.7,3.3-.7-3.3h1.4ZM3.4,50C3.4,24.3,24.3,3.4,50,3.4s46.6,20.9,46.6,46.6-2.2,16.7-6.7,24l-.7-3.4c0-.2-.2-.5-.3-.7,3.3-6,4.8-12.9,4.8-19.8,0-24.1-19.5-43.6-43.6-43.6S6.4,25.9,6.4,50s19.1,43.3,42.9,43.6l-.7,2.9c-25-.9-45.2-21.4-45.2-46.6ZM52.1,96.6l2.1-10.2h7.6l2.1,10.2h-11.7ZM68.3,96.6l2.1-10.2h7.6l2.1,10.2h-11.7ZM84.3,96.6l2.1-10.2h7.6l2.1,10.2h-11.7Z"/>
      <path class="cls-1" d="M43.8,14c-2.2.3-4.3.9-6.4,1.7-.9.3-1.4,1.4-1,2.2.2.7.9,1.2,1.6,1.2s.3,0,.5-.2c1.9-.7,3.8-1.2,5.7-1.6.9-.2,1.6-1,1.4-2.1.2-1-.9-1.6-1.7-1.4Z"/>
      <path class="cls-1" d="M31.9,18.3c-9.1,5.3-15.7,14.3-17.8,24.7-.2.9.3,1.9,1.4,2.1h.3c.9,0,1.6-.5,1.7-1.4,1.9-9.3,7.8-17.6,16-22.2.9-.5,1-1.6.7-2.4-.3-.9-1.7-1.2-2.4-.7Z"/>
      <path class="cls-1" d="M50,16.9c1,0,1.7-.7,1.7-1.7v-2.8c0-1-.7-1.7-1.7-1.7s-1.7.7-1.7,1.7v2.8c0,.9.7,1.7,1.7,1.7Z"/>
      <path class="cls-1" d="M84.8,51.7h2.8c1,0,1.7-.7,1.7-1.7s-.7-1.7-1.7-1.7h-2.8c-1,0-1.7.7-1.7,1.7s.9,1.7,1.7,1.7Z"/>
      <path class="cls-1" d="M15.2,48.3h-2.8c-1,0-1.7.7-1.7,1.7s.7,1.7,1.7,1.7h2.8c1,0,1.7-.7,1.7-1.7s-.9-1.7-1.7-1.7Z"/>
      <path class="cls-1" d="M71,50c0-1-.7-1.7-1.7-1.7h-17.6v-23.6c0-1-.7-1.7-1.7-1.7s-1.7.7-1.7,1.7v25.3c0,1,.7,1.7,1.7,1.7h19.3c.9,0,1.7-.7,1.7-1.7Z"/>
    </g>
  </g>
</svg>